# xmcd CD database file
#
# Track frame offsets:
#	150
#	14591
#	33108
#	53007
#	66629
#	89912
#	115637
#	133076
#	153024
#	167311
#	184264
#	206818
#	224783
#
# Disc length: 3302 seconds
#
# Revision: 1
# Processed by: cddbd v1.5.2PL0 Copyright (c) Steve Scherf et al.
# Submitted via: CDex 1.51
#
DISCID=bd0ce40d
DTITLE=Sleepy John Estes - On The Chicago Blues Scene or Electric Sleep
DYEAR=1968
DGENRE=Blues
TTITLE0=I Ain't Gonna Sell It
TTITLE1=Laura Had A Dream
TTITLE2=Divin Duck Blues
TTITLE3=Walking Down Beale Street
TTITLE4=Everybody Oughta Make A Change
TTITLE5=Need More Blues
TTITLE6=Drop Down Mama
TTITLE7=Airplane Blues
TTITLE8=How To Sing These Blues
TTITLE9=Sweet Little Flower
TTITLE10=May West
TTITLE11=Easin' Back To Tennessee
TTITLE12=Newport Blues
EXTD=YEAR: 1968
EXTT0=
EXTT1=
EXTT2=
EXTT3=
EXTT4=
EXTT5=
EXTT6=
EXTT7=
EXTT8=
EXTT9=
EXTT10=
EXTT11=
EXTT12=
PLAYORDER=
